# xmcd
#
# Track frame offsets:
# 150
# 16879
# 36369
# 53667
# 78479
# 96094
# 110015
# 127631
# 142274
# 156912
# 174330
# 189868
# 209439
# 226750
# 244138
# 259853
# 287149
#
# Disc length: 3972 seconds
#
# Revision: 0
# Processed by: cddbd v1.5.2PL0 Copyright (c) Steve Scherf et al.
# Submitted via: TinyPlayer 2.8
#
DISCID=e50f8211
DTITLE=Jessie J - Who You Are [Platinum Edition]
DYEAR=2011
DGENRE=R&B
TTITLE0=Jessie J featuring B.o.B - Price Tag
TTITLE1=Jessie J - Nobody's Perfect
TTITLE2=Jessie J - Abracadabra
TTITLE3=Jessie J - Big White Room [Live]
TTITLE4=Jessie J - Casualty of Love
TTITLE5=Jessie J - Rainbow
TTITLE6=Jessie J - Who's Laughing Now
TTITLE7=Jessie J - Do It Like a Dude
TTITLE8=Jessie J - Mamma Knows Best
TTITLE9=Jessie J - L.O.V.E.
TTITLE10=Jessie J - Stand Up
TTITLE11=Jessie J - I Need This
TTITLE12=Jessie J - Who You Are
TTITLE13=Jessie J - Domino
TTITLE14=Jessie J - My Shadow
TTITLE15=Jessie J featuring David Guetta - LaserLight
TTITLE16=data: "Pictures from Jessie's private collection"
EXTD=Location:  - UPC: 602527870113 - Catalogue number:  - Label: Lava, Universal Republic - ASIN: B005XIYLF4 - Release Date: 2011 11 14 - Discogs: a2126398,m330000,r3226656 - MUSICBRAINZ_ALBUMID:  - AMG: p2298901,r2135535 - 
EXTT0=
EXTT1=
EXTT2=
EXTT3=
EXTT4=
EXTT5=
EXTT6=
EXTT7=
EXTT8=
EXTT9=
EXTT10=
EXTT11=
EXTT12=
EXTT13=
EXTT14=
EXTT15=
EXTT16=
PLAYORDER=
